<svg xmlns="http://www.w3.org/2000/svg" width="128" height="128" viewBox="0 0 128 128">
  <defs>
    <linearGradient id="g" x1="0" y1="0" x2="1" y2="1">
      <stop offset="0%" stop-color="#4F46E5"/>
      <stop offset="100%" stop-color="#06B6D4"/>
    </linearGradient>
  </defs>
  <rect x="8" y="8" width="112" height="112" rx="16" fill="#0B1220"/>
  <rect x="16" y="24" width="40" height="20" rx="4" fill="url(#g)"/>
  <rect x="72" y="24" width="40" height="20" rx="4" fill="#1F2937" stroke="#93C5FD" stroke-width="2"/>
  <rect x="16" y="54" width="40" height="20" rx="4" fill="#1F2937" stroke="#93C5FD" stroke-width="2"/>
  <rect x="72" y="54" width="40" height="20" rx="4" fill="url(#g)"/>
  <rect x="44" y="84" width="40" height="24" rx="6" fill="#111827" stroke="#34D399" stroke-width="2"/>
  <path d="M36 44 L36 54" stroke="#93C5FD" stroke-width="3" stroke-linecap="round"/>
  <path d="M92 44 L92 54" stroke="#93C5FD" stroke-width="3" stroke-linecap="round"/>
  <path d="M36 74 L64 84" stroke="#34D399" stroke-width="3" stroke-linecap="round"/>
  <path d="M92 74 L64 84" stroke="#34D399" stroke-width="3" stroke-linecap="round"/>
  <circle cx="36" cy="54" r="3" fill="#93C5FD"/>
  <circle cx="92" cy="54" r="3" fill="#93C5FD"/>
  <circle cx="64" cy="84" r="3" fill="#34D399"/>
  <text x="64" y="100" text-anchor="middle" font-family="Segoe UI, Arial, sans-serif" font-size="16" fill="#E5E7EB">.py</text>
</svg>

